<mxfile host="app.diagrams.net" modified="2022-01-27T14:01:36.992Z" agent="5.0 (Windows NT 10.0; Win64; x64) AppleWebKit/537.36 (KHTML, like Gecko) Chrome/97.0.4692.99 Safari/537.36" etag="EVNZmir2rcLK9rJScyKb" version="16.4.7" type="github">
  <diagram id="PDk15Jv1SSwrnmCWiY2P" name="Page-1">
    <mxGraphModel dx="1038" dy="579" grid="1" gridSize="10" guides="1" tooltips="1" connect="1" arrows="1" fold="1" page="1" pageScale="1" pageWidth="827" pageHeight="1169" math="0" shadow="0">
      <root>
        <mxCell id="0" />
        <mxCell id="1" parent="0" />
        <mxCell id="_wjk-Xj_CM7tvn-0b_mo-6" style="edgeStyle=orthogonalEdgeStyle;rounded=0;orthogonalLoop=1;jettySize=auto;html=1;exitX=0.5;exitY=1;exitDx=0;exitDy=0;" edge="1" parent="1" source="_wjk-Xj_CM7tvn-0b_mo-1" target="_wjk-Xj_CM7tvn-0b_mo-7">
          <mxGeometry relative="1" as="geometry">
            <mxPoint x="414" y="560" as="targetPoint" />
          </mxGeometry>
        </mxCell>
        <mxCell id="_wjk-Xj_CM7tvn-0b_mo-1" value="" style="ellipse;whiteSpace=wrap;html=1;" vertex="1" parent="1">
          <mxGeometry x="274" y="150" width="280" height="280" as="geometry" />
        </mxCell>
        <mxCell id="_wjk-Xj_CM7tvn-0b_mo-2" value="Begin" style="text;html=1;strokeColor=none;fillColor=none;align=center;verticalAlign=middle;whiteSpace=wrap;rounded=0;" vertex="1" parent="1">
          <mxGeometry x="384" y="280" width="60" height="30" as="geometry" />
        </mxCell>
        <mxCell id="_wjk-Xj_CM7tvn-0b_mo-7" value="" style="rounded=0;whiteSpace=wrap;html=1;" vertex="1" parent="1">
          <mxGeometry x="354" y="555" width="120" height="60" as="geometry" />
        </mxCell>
        <mxCell id="_wjk-Xj_CM7tvn-0b_mo-14" style="edgeStyle=orthogonalEdgeStyle;rounded=0;orthogonalLoop=1;jettySize=auto;html=1;exitX=0.5;exitY=0.917;exitDx=0;exitDy=0;exitPerimeter=0;" edge="1" parent="1" source="_wjk-Xj_CM7tvn-0b_mo-7" target="_wjk-Xj_CM7tvn-0b_mo-15">
          <mxGeometry relative="1" as="geometry">
            <mxPoint x="414" y="740" as="targetPoint" />
            <mxPoint x="414" y="620" as="sourcePoint" />
          </mxGeometry>
        </mxCell>
        <mxCell id="_wjk-Xj_CM7tvn-0b_mo-18" style="edgeStyle=orthogonalEdgeStyle;rounded=0;orthogonalLoop=1;jettySize=auto;html=1;exitX=1;exitY=0.5;exitDx=0;exitDy=0;" edge="1" parent="1" source="_wjk-Xj_CM7tvn-0b_mo-15" target="_wjk-Xj_CM7tvn-0b_mo-19">
          <mxGeometry relative="1" as="geometry">
            <mxPoint x="670" y="740" as="targetPoint" />
          </mxGeometry>
        </mxCell>
        <mxCell id="_wjk-Xj_CM7tvn-0b_mo-15" value="" style="rhombus;whiteSpace=wrap;html=1;" vertex="1" parent="1">
          <mxGeometry x="297" y="700" width="234" height="80" as="geometry" />
        </mxCell>
        <mxCell id="_wjk-Xj_CM7tvn-0b_mo-22" style="edgeStyle=orthogonalEdgeStyle;rounded=0;orthogonalLoop=1;jettySize=auto;html=1;" edge="1" parent="1">
          <mxGeometry relative="1" as="geometry">
            <mxPoint x="415" y="870" as="targetPoint" />
            <mxPoint x="415" y="780" as="sourcePoint" />
          </mxGeometry>
        </mxCell>
        <mxCell id="_wjk-Xj_CM7tvn-0b_mo-19" value="" style="ellipse;whiteSpace=wrap;html=1;" vertex="1" parent="1">
          <mxGeometry x="610" y="700" width="120" height="80" as="geometry" />
        </mxCell>
        <mxCell id="_wjk-Xj_CM7tvn-0b_mo-20" value="End" style="text;html=1;strokeColor=none;fillColor=none;align=center;verticalAlign=middle;whiteSpace=wrap;rounded=0;" vertex="1" parent="1">
          <mxGeometry x="640" y="730" width="60" height="30" as="geometry" />
        </mxCell>
        <mxCell id="_wjk-Xj_CM7tvn-0b_mo-23" value="True" style="text;html=1;strokeColor=none;fillColor=none;align=center;verticalAlign=middle;whiteSpace=wrap;rounded=0;" vertex="1" parent="1">
          <mxGeometry x="430" y="790" width="60" height="30" as="geometry" />
        </mxCell>
        <mxCell id="_wjk-Xj_CM7tvn-0b_mo-24" value="False" style="text;html=1;strokeColor=none;fillColor=none;align=center;verticalAlign=middle;whiteSpace=wrap;rounded=0;" vertex="1" parent="1">
          <mxGeometry x="531" y="700" width="60" height="30" as="geometry" />
        </mxCell>
        <mxCell id="_wjk-Xj_CM7tvn-0b_mo-32" style="edgeStyle=orthogonalEdgeStyle;rounded=0;orthogonalLoop=1;jettySize=auto;html=1;exitX=0.5;exitY=1;exitDx=0;exitDy=0;" edge="1" parent="1" source="_wjk-Xj_CM7tvn-0b_mo-25">
          <mxGeometry relative="1" as="geometry">
            <mxPoint x="414" y="1020" as="targetPoint" />
          </mxGeometry>
        </mxCell>
        <mxCell id="_wjk-Xj_CM7tvn-0b_mo-25" value="" style="rounded=0;whiteSpace=wrap;html=1;" vertex="1" parent="1">
          <mxGeometry x="332" y="860" width="164" height="60" as="geometry" />
        </mxCell>
        <mxCell id="_wjk-Xj_CM7tvn-0b_mo-26" value="Text" style="text;html=1;strokeColor=none;fillColor=none;align=center;verticalAlign=middle;whiteSpace=wrap;rounded=0;" vertex="1" parent="1">
          <mxGeometry x="385" y="875" width="60" height="30" as="geometry" />
        </mxCell>
        <mxCell id="_wjk-Xj_CM7tvn-0b_mo-27" value="" style="shape=image;verticalLabelPosition=bottom;labelBackgroundColor=default;verticalAlign=top;aspect=fixed;imageAspect=0;image=data:image/png,iVBORw0KGgoAAAANSUhEUgAAAKgAAAAhCAYAAABN9OCkAAAgAElEQVR4nO28aZBdx3Xn+TuZee9bakWhNuw7CiQBEAtBghQEgpBEUqQWSqKohVrDHqnbMz2e6PHEREzE9PhDx4y77dZoJtx2W+22PXZL1NiSbEnUYksmJXEXKG4AsRRAYq8CUPv2lnsz88yHW1UEIMo9ESOPPpin4sWrunVvvsy8J0/+z/9/7hNVVQBVRUR4y96yX6Vd74dm3j8X//mWvWW/alPVxZfLsozx8XFijL/qfr1lb9miVSoVlixZgpucnOTBBx+k0WgQQsA596vu21v2T9RUddEHd+/ezR/+4R/iQgiMjY1Rq9Ww1r4VSd+yX7mpKtPT04gIxhhDjBERuco5LRAXX0YMiXNUqwnOOsCgouhig1wFbD2gCGb+epl/mfnzFUEBQVGEiCiIKFC0GRWQAoMg+kYbutAvRaND53+Y/2glImJQAiKK4IrOEUAFwS70GBFLpVohLZUwqkRZ6GNEBSAixpCkVdqWLKWtewWlaivWpohGVEwxEgkIkahmfswCRJQw/0kGBATBaARrSNIEU2rBpmWQgGhA1MDi9fMzMf8ZxY8SMZiQIbiiXYrrVBRRV3yuRgzAwlUSivGoQQCV+P9LMlwqlWhpacGYoje/KNd5s76IyGKyZIDFRgqLoEqMinMpIFgnrF3fxkc+eg89PUvQKKCKmOJ8MTkhRIgJ4pegISEPDcREIMPYHB9zwKAqoCloGWNSRC1OUoiW4C1oqXC+aDBWUW0iYrDGYW1CCAoxAQlYmxYuHgwaLcSEEHKcTRHKABgRrAOxGUqDEAMigk08W268kbcd2E8SlDQqYhRjhUhCwFAyju41W3j/v/o3fPY/fpOb7vkYpXILIko95ngVTDR4LNEEMs1APGm0SKyiRjAC5CDOEAUSm7Js0xbe9Wu/iWtrIYtKqFbxSURtxNMgmowoOaoeEwOiSmYynCguTZgTMBrR6LBEnA9EmuSiYJpkjVmiqyAIwbRiNCWRMnUDoIQYisWlCr+kvPhqR1NVDh48yJ49e1BVYoyUSqXF340xWGtRVbz3hdfFaxfOwu9vAjgNEV84gy9WrkjAUqGUOryvYSRDjCF6gzEWjQZrQDWidg6RJgkO0QpoIAaPNYrIfLQ1GTHmbNu2gV03r6eru4VLl6d58YXXOHb0NZLEET1oMDhXIvhAlAzF4KwBmqAWjQFixNoEjXkRowU0REJsYlwkBDC+hGqOAtYI5XKFVatWcfD2fTzy11+j5sC4CHkEqWBVsQhBA5fODfLt/+Pfcsd9DyHMESSjaRM6YoOoDh8NIkLic6xNqEER9W1GEgJKTkwdPkQMBqMGIxWElFQSVq3dyrq9d7JkxWrq42NcOnKIVw89jbECoYnYBKIjDcXYGkFojTnRGqI6gnrUGJwIGgEp41ILYQ5FqGQ1MmfwOocjxcQU0Rw1EeWXF0kXouJC5Dt8+DAf/vCHGR8fZ3BwkHq9fk00DaEIFM65Ilt3bvHY1famDmokYK0hSYQNG9exccMa2jtKJKniTMKqVctYvrKdJKnS2pYyMjLF8aPnaTQztu9cRX9/P1bgsR+8zJKublau6eDQsyfw3uGSwJ7bNnL+7CRHj5zB1+e4/W3beeLxl7l0aZKVq/pZv6GH1mobY+NjrFmzipGRcV54/jg+j+zas4nOzjayTHjqiZdQESrlCntu3UY5LaOSc2lollePnKfSatixayOVUoXh4RGOvHKWLIO2tjbuuftevvm332FydBQjFoOjpaeHzbe+jVyF+uglzr58iNiokY2PUp+awuURkQqQYapVVtx4O0v7loFJOP3Ss4Qr51m6egtJ2sKlE89Q6epj/fa9vPrTH5H6wIotO+ndsI5Key9iHR7LyLmTzNSn2HP/Rzn1wlOMHH+FJUt76LthB9W2KvV6RntbJ2qF4z/6HrVGg03b9lJdvgyxwtHv/TWqkAhsPfBukrSMJMLM2AjnX3qWmAduuG0/prOLbGKC1595gmY+iXohEosI/0uwq7flGCOjo6M8+uij3H333Vy6dIl6vQ5AmqbceeedXLhwgcHBQbIs42qY+fPeeJ1pFKIGrBW2blvNzt2b+elzz/LTZ1+gUQ84V6Kvr4PP/8YHuHXvACeOXeDBh97Fho2r2bp1Ey3lLn761KsEH/n1f/ZuVq4ps//ANtIUjMlIbMK+t+9gSVcZZy0qKZGMxFmMUdau7eeTn3yQ/r4ePvbx+8hDnVv2bGXFyh5u3buTqQnl+WdOs3JFPwffcQdLOtt5z3v3MTudcfiVQQYGNtBsNOnsaOOBBw7SmBNe+tlxtu/YyI7dq3EJLFvei0sjQ5fOMd1o4CJ0tvVz4COfpWkSTj72PV479AQhnyGknmihYRx1KRNDpFp29O4+yIabb+f1F37G5NAw+z/9L5H1G1m9eT2r1q6jpbSElt5+1u3cT2/3Cjbctp/VN+/iyJM/4rUXfkjJNHCxXqDJrI74iERDFpW2lau568GP0tHTw633f4C2vlVsvGEnKwd2suHmWymL5+JTP6S71MLbPvRRqkuXsOOjn0BEGX71OTYMbEeaHm3pYOfHPoPr6uTMC0+yav0Gth68h1KlikrARJ3H6P/fbWHrhiJC1ut1hoaGiDHS09Oz6IRtbW3s2bOHgYEByuUySZJcw3tebz8XQcVEBEs5rbD95i0ceeUoM1OG9vYKWAXjwRiOvjrMV7/yGJcvj/LkEy8xNjpJvTbHXe+4hYGBO1na00q1JSU0KzhbZdnyfvbt38bzzx3BxJRGPSfQpIAgCT63aLTE4JmdneT40UHKZcOJIxfZetNGnKlw7vQ59h/cQeI20be8yszcBKmrsqSrhSzLUE2YmJjCOmhrTxkYWEaaRLZsWU53b5XLl5aS2CGSJGVmuoH1gsEiJSXp6qTW8Fw+fIimNiAKiEOCkoaISI4jx0lGFMumzbs5f/h55qaHmJ0YZv2et7Nq9UZUOsicJ08drR6wEFrLrNtxO4d+8Cg6M4X2rKQWHBhDQCCpEK3DkpMaUB9p1DwnXnmFUqWLMy8/Tf97PoqkliunjrH74AN079xDa9caZhuTuLKjY+lKps4O0fCB8fFx0nIbbS0ltu48wNkTx1h6dz+20kvHmhLOJChgrEF/WSAUCCFgjFnctmOMhBBI07TwLRGmp6f54he/iKqSZdkiBv1FidubbPEKGGQeyDbqGdZU6FraRikpMZ8Scmn4MrXZGnkeePRbT1FOK+zbfyObB5Zz4fwVYihjaGdurkGj3mDVqm5aW6osX95HuVphemYGIxGRCGox1iNEUEMITbyPNJoZ3ueIBJLE8I537aWtwzE+NkvIBWvBOYfPM3bt3kyWB8bGpxm6OEZbayeRQL2eMVerc3H4MqdfGyPLI0aKG6QkCDkmBNQUi8NpBgpqI0GLXLkpghPI1BVOSw4I2IhHsCbBmhwbIlkiVBFc2kqlrRNJHAaHsZY4OwXlMm1Le5FKgifBG8HGCJLhjSVDsXjqCJo1Cc0GoT5NU1JKznLTgbtpX72WyeEhNNYxxpKYFD89y/Ltu+let5G8kXH+xIukZYMohPoc9Zk6/tJRRoaOk4WcNClRrVSAwlGazeZiMlMuFwlmlmU0Go0CYyfJ4vFms0mWZUCxZZdKpWuOL0RDa+3iefAGTrW2YFPyPF+MrKqKMebnouibOqiiNBsNLl68yPadazH2DPfffxf1+hyQIwRiCEUm7QSfK+Vyic0DG3jhhaMcf/Usd9+7n3K5SaM+x5XLowwMrOHk8YusXr2amdo0eWYxYiiVwIjFpQExEY2CRkeMjhgShBJ55mhtrbJ2/Uq+8bVHmZ5p8qlPf4CQn2Zpt6GlNeX3v/D1YjimQZZDlCanTl7i1SMXOHrsJM3MkzUDINTrddraWglJjhFPGmBudpxyVwdLt+5jcvKHaG2aLAYIntZSB+KB1CGJQZqRM68dZ2DLTUxcfJ3uZavQ4Bk+cZS+TTdQWb+Njq429hy8C21vJdZnGbn4Gjfsv5NzRw6z490fZGLyHGWt41OhahKqmlBJSpRsitNIghIIqNaJsY7EBrbazvqNW3nhxz9k9uxZej7xaZozNdK2ZSzbeDOP/Ot/QWjM4UgI2iTt7OD8iac4f/Yopw89h6/ViTEj5jkdre287773sPOWXfy7L/w7hoeHcc5RqVT4yEc+wsDAAL/7u7/LlStXAGhtbeXTn/40PT09fPGLX2R0dBQo8PznP/95RIQ/+IM/oNlsLjqn955KpXKNk3Z0dPC5z32O8fFxvvKVrzA+Pl44onNvikPtb/3Wb/32n/3Zny2GWmVerI8poyOTJKmjc0kXL788yJkzlzh16hzBC7OzOUPDo/gAxirBB4aHL9LV3UVPbx+nTw9xcWiEk6fOMTvjiZrw7FMvUSqXOHb0FEMXx1m9ehVr1vYyMztD55Iums3I+MQEMzMznBwcpt5ocPr0JZp5k5Mnz3N88Bh9ff1093Rw6NBLDA9NkTUcq1Z309JWZVl/D9t3bmDbjgFOnRzi+LFzrFjdxfLl/fT29TAzM03WLFb45oEtNKdrTM7UaOQRX5vm8rkzdHWvpqevB9PRydz4JSrlMqt23ErTe4Kv097WyvDZs8yMnMNHYenqAUwp5dUnvs/0yATTly9iEkdLz3LOnTjJyJlBLgweZ+LcOdK2Vjpaezj506eYvHSWoddfo6O3j6Vbb6VWm6NUrWDUcuXKEH5uhounXkYzz+WhYfzcBFdOHef1I0do6+ul0tfPay+9xOzwORrTw7QtX0mps4uly3rp27Kd7Xfdy9BrJzj+7I/o61lD58pVdPcvhyzQnJklsYaWjjbWrV/HsWPHGB0dXcyuQwhcuXKF48ePk+f5NccvXrzI4OAg3vtFmijGyNmzZ3n99dcXI2CpVGLdunWsXbuWn/3sZ8zMzCxi1J6eHtra2nj11VdpNBqLlBO8sdWvWrWKBx98EBkeHtYDBw4sZlmFBdASRiwx1jFWUC0SKGOEgs+XwjE1Q0yAWMZgQTwhRKxL8DkY64mx4DEhR2PA2ApRA6IlxMzMr5wEjQ4jELSOlTYiDSAFyUEdUTOMBYMjxoAg3LxrPQ988AB/9cgPqM/VuWHbOlauWcaX/+J7zM0WXCIxBSmI6xA9LS0V+vr7ePihh/m///KrnDp9HqWJUY+JVYIEvAs4TREVgjQxaggClkiISmIdPijGFomGqsERUbF4VQwRiQFMCgQkWDKXU9KEIJ5MoYQjSAQcLnoyK7ggGOOJQcAFgiYYwAVPsJYQA4lJCUQCQsUr3Vu2cvdv/I/8/Z/9AY2pUXr6V7D9wH383Z//PhOXz4IvKCoRiBoRI2zasIn9b9/Pq0ePcfz4cSYnJ6/ZZhey8esj2v/b46tXr+ahhx7i61//OkNDQ2RZhrWWffv2sWnTJn7yk59w4cIFZmZmFhXMq7f4O+64g0ceeeR6B51XW0xxY0NQnEsIPi5yViF4RCwwrzypAYmAKbQLU6hIIXo0pqh6khRC8BhjwTSIwSEYNBpcElFNimRSpVBWJOJ9BPFYkwKK92EeOxbCgJESRkp0tFd5+DN3sv+um4je8dqpIb74ha8wPhbImg2M9fMzaOZJaSlEiCRh200D9C3r4bvfexzB4KxHrIHoMBrIg8dIUpDiJpKrUMISDGjw8/wrBV6POTPGkMSIUwiSoDZQEmjGDB8cqVOa0VBmDjUVYkwJWqM1LkVjncxGjBPQgLOWTHPILc6UiTqLdwYxkOSOPBgS4/EmUlrSwe0f+Cxb3/UwSQq10Qn+6nf+JZMXXifPaqS5JTcQCQWXHXIUxVpD8Iqz7ufK3BZURRG5TmXkTY/Py5KEEIgxcu+999JsNnnmmWfIsmzReRdeC+eKyGJydbX9AgeFQkp0hWRmIMY3VpUSEcw84V5IkCKAWqLm83KlBRUUj0hSCJpqwdTRWAHJCglOLSK+ILXVsSBpiEiRpGghR8ZYqDtKYz4SFn0UAxocLhEqFUu1UkGBZtMzPTNbtBHn5U7RQkSgiB6F0iqUy1V8yAnNDDGFOGlCSpCAIxCNoppgUFQ8JhpUhIhFJKIKhoCKINGgTotoZQS0mKuI4jDkEjDRgimUOpGEgGC1RrAW8WWM5mgSIFgQV6hIEgiSEalgoiUYjyvEXKxavDaxaYWqbcO1lYrrmg1m58bREMgFbIhEU0yx1XkqCIimUE7MPIf5y7RSqVQk2Y3Gzzn3wmK4njt9swjqpNi7i5uuRRCzCDkWouBNwBELx9CIMUKIFlEt7oNGVAMYIaIQFSuCauG8GuO89p4SCIhJ0FyxVgkihbJCoW0HvWo1qsHEiLcBSDCUIWZgHSqCCYHceDJv0RnP7HSOyrxOr8V2JkaIIRSfL1Jo5TpfBRCVem0WcBhTZObF+BURJWCQ+VoARUCLWgIVM+9/RV9VLKqRhdIDESHqvIKuYKSgcowuFgwUOn4MGCOoGiQIIh6NYEnxqlgxZJIVoqtJiSFDjEPUEkUL1cxERBOCz5jzY0i9WHxFuwEjIHG+biBGjCsXTAURyYVmKkiMGGvxEokqlGNCbnMQiHEeFsRYcNZR5++rKQKYyBs0lcyPbf4eNvOM2IyYhdoCjfPUliWGSKIUjIURTPRYY9FgUcmvieQuKgQ1GFsqwjBC1AzIcSYlRBA15NYUunaANCq5jTQlzuPIgFOLUYM3njAfFX3wiBgQi8RAyVqIEa8RxWBCwJkq0eQIGTYoViyCJSp4sUhIkNAkJccbQxRLQ1Kq5JRCRpQmKgVmttYSYuGkIIQQi+xQw7yjmsJRjSmKSUQRFXyIRFmIIKEobZmnP8zC5GqxlWsMxHlpboHrE5GinEUMuc+x1haOyhsFMAUIVESKWxY1oNGgJCRJUuB2IITGfL9CgX9JCdFgxWCjYKOSOU+gkJiNKIkmoODnOeoQimDj1WBsAhowpoT4BpIY8jxFS+DyOjFJCUFQKeBDiAE775SGhBAtxjl8zLAmELzBUdA/IQTEONQ4nGoB62R+7rziJJkvafHzMrMhenAmpSlCIkrQHLWGGDLUZtjg3tixVXERg7UJWdYsQkDwiHNYKZP7MD/5SjUouVUyY3DzW6eTAie6UNygQI4hIFpAA7UJxIiJORCJIWAMBJciQCqC12aBY2OKNUUUVQPRKKIZVa3SwJEZnXednKoqTgMNazGUEM2JVtD4Br2xAPgLBzLzg4YQPWIXqqKEGENRT6DFAlwIBzHGa9SRhUlbeL9621qYzAWc/otku/mTi5smBpGCavN5DoSCQTEF8+d9wBqDiUIpBJoWmkBCEWVFIkLAxaICKxKxBCRGggrYFAkeG4qdRdQg4iAahIjxnmhbCDHHAEYBicU8qhTwLCqp5pBnRCOoCKnJUYQ8gnUW1aIaK8QApoB3RiwYj2qToLp4vLgPAdSTICRqsRhisIhaFP9z0+XEgAk5EvKil8ZCLG7A0lXr2PmO96EtSxh84ptcOn6E6BWxGV4EEwNWI9FW8bEocbOS4iPFBGoEY/FRcBYwjp71W1ix8QZefuxbhLonmASJHkQKzBeh5Bzvu/9+lvb2c3l4iG9/65tEY0klpXfgZm7Ys4cff/2rmNo4Gpq0d7Zx/z33saS7m5dffpmnnnoKVaW3t5d77rkH51KOHn2V5557FpcYKq1l2tvbAKFRqzM5MYURy6aNm7h9721UW1t57LHHGBwcXHTGhYgJRXRZyDwXKJIF510A/P8QplMVxAiiERsCAY9YIUaDiQWM3bRzL5v2vpPZ+hwv/e1XiaOjxc5jczwpJuQYsXjr8DEvinG0RFB9Y+6tIw8BZyxiHWtv2Q95zpWLg9D01KbHMK6FqmlSau9hZLJOe+Ip9a7BSKQ5N8fc5ASEjNjMsAgeh0VwBQgiVyGKwbqEGDxGhBB8USYoaTGuheM+FLuXLdHe082GXbdz+InH0LkRUEjV4K8KBADOEDAacaUKmTMFDRIzEl9n9OJxnvh2nX3v+wjl7tUkcooYGySSk5gylaRKdIGprI6VSAlbZL7WYVVJYp0QHVFSRAzllhJty5bRtmotSbmCNuqYslBRA0Hw6sFCOXV0d/fz9FNP8sqxn2GtQdVQqlZp6+ogbW2l0t7C5NwIRixzMzX+8i//ioc/+UlWrFixGNVaWlro6OjgL/78z5mcmkKJJKljx67tHHznXSQu5cjhw3zrbx6lUfMMnjzJuXNn+Nzn/xkdHR2LCsfVUTHGSJIk5Hm+6JwLx692TvlFiYcYgipKsZUaESi3oGJw4oh5nSQ2OHXkGUbGJtjxzvdQ7VxGfmUSYoPUBtQklNIKufHMZHVSK4UmpgE1hpSAixmZJkSbYK1Qae+gvbcbJ5Hl6zez/OZb+N5/+NdorcnND/w3iHG88Df/Fxt23cqdH/p1Zo0yffYkP/rKHzNz/iQmMaizlAR8HlGbkmsgSQ0iAS8RYws8rRFcasBEImCCIKGANi41mERo71hO1+otVFp+xszcMJRb0VwQ9ddWOymKNwlLV29i9z3vJu3s4dyLz3P8se/C3BUSsSCGhEA0OZk1BKmw/2Ofp3fdDUjM+eGffIH63Bybdu9j/MoFRi++TlvXMjZu3cNLT/4d5doEe+7/GP0Du2jp7GJ4+BQYJa208raH/2uW9PZDfY7Hv/YX1IbOYEKRAKgqJlRQUSqtHWw4cA8De9/F0LHDUM8px0DAEOJCKd8b2+7CFns1fWITS+eSTpat6OeP/9Mf4aNy8K4D3LhtgCMvniRvehbKexZw5AJMWGjLGIP3HmMM1WqVHTt2MDU1xalTp2g0Gv+wc7KQNAKixAhqK6zZehvb9t+FlFs4+cTjnH3+x5jmDM64AvdrjjeeDIdU23jXZ/57yl19xOkrfP+PvwBpC7v2v5PBV55jeuwKvas307F0Gad+9iNaUset7/8sncvXkXa0c/yp7/Pijx9lanSY/R//DSYuXGBJewuPf/lLlBLD6p17+eb/+duMX7lAVp8j5hnVrh4233I75aXLWLJiIyODL/DSD75ObXaW3hv2sPPge0nLZV55/FFe++njIMLq7W9n2533YZ3h+e/9FRcOP4uKYf2ed3HTvrupdraTNzJMiDhSWls6uXPfXs6cPc+JEycW59ulUqJr5Up2vPtBzrz4JLXZaSZHhogxA5MQY46ahKgRTJlyybP1tvto6e7ipe88wrKBm7nzU7/JU1/9D3Sv3YS6KhPDF2hZ2sOqrfs4/dKTrLrtAElHN4d/+DW6N26l0t2FMykr7jhAuVTh+I++Q31qjPrEOIFAtElBiSKo5ljK5FEZOvwsbS09tPT141TxxiCxBLHBAo32Zo4RYkEviTg2bF5H0AZZI9Ld08bqjctphBrHXh4kzAsQ127H17Z3NZ/nnGPDhg1cvHiR06dPk6Yp7e3tVCqVxQKJ6elparUas7OzRRI3HxmiChVXon/LVm7/4Gd48Ttfpl6bZXz4HCFGTJLifVGsnQPGlKiWUvY98CkazSlOfPfvGdjzDvZ+8LMcffL79N+4m+ELF5ibnKZj+UqW9Q9w+dTLbD/wADOTY5x+9RAbtt1BjILWZzn/6ktsfsd72bL/Zv7+9/8XpsfP09KxFHxgxc23kD8xyaTk5GNzJKUWBva9g9NHjzL42F+z4fa76dm4jdmRS2y97Z2cfPFJElHW3/I2Zi+ehzRl4JZ9HH76+7S3djCw714mhi7T1beU/htv5PDffofO5R30b9lNEI+qJW80WL5+DSOj1z7A6WKa0LZiNVOjl7n0wjNMzo2jarHREKKhYiyiORalKRmtS3tZ+/a7efxP/w1jwxc48cpzfPZ/+1OWbb6RIEpFmlgynHqUJkn3CtbufTtP/9HvMDE5hZUqptRO6trQ5gS2XCXLcubqk/jGOPgcosMFwCjiAj6vofUGUyPTjJw5jm11RJMTTI6EJmJ0/kGTq3bSa6qz38gKKy1l+pf38p733o8AR145QZIkWDPPyxKva4lrouICsdzf38+yZcuoVCp0dXWxZs0axsfH2bt3L3fccQetra0YYzhx4gRf/vKXmZmZwfsiQVM8RAetFfpu3MapQ08z/NKzzMxNgXEYb1EL7c4i0WMN1CVj9cbt9Ny8h7/8V5+jmWWcO/4KD/1PX+DiyZeJxpBKRiJNTAx4CXSs2cDy7bt49H/9b8lEqCzpIi234gnYWGf03Cn81Bj16QkSDTRG5njyq3/KHR98mFX/4n9m6uJZnviLfw8SGT4/xOAPv83s+AVae/tYvm6AiUobiGdmdAgbhN51OW39qygvWcpsrUY2OsbU5DTLB26gu38pG265jcunjjE0+BTTc5soLV9PtOBNoNGY4w//9y+iuGs4UhOBxJap1+eoWUuuCcFAbjJCAh5DwKG+REJGKdRJteDIXLRYSdAcjCZYdTS1UqhExpJZITUZIsLkzBTRgWtppeQsjeYUp57/MYe+/seYJGHnPR9n4679lNrayEyKiuKjEtVhjEWiEGNS/K0VIm0QS1gjqESC/EOFYwUnaY0wOjJGiJEfP/k43/j631CbblKbahD8/LM7/4AtTNpCNU65XF4sL0vTdBGzNptNGo0G9Xp9UctegAxShPQCkiAkJmV6ZoyaGIJJCRLxLiMmhlwNgRTTNKQ0SWNGSQupOcGiJJAbjDqsOoKWiCIY4wg2UjKeIDBbm8XEQLllKTZvUrId9G3Yw8rVA4hN2XLPh/HBggSaV17n8T/5Hb7ze7+Fb0xz8x0HKKUJBI8aIXet5DiIBV9urCF1FTCGwUOPMXz+WIGxE0eSlvAaOPr4D5m6MoRXx1w9Jw+Riq3QIkLZK0YdGhMcLddAMwBnvGf6yjluv/UOrpy/haXTl5kaHSLLZzCujSVd/fT29dFs1Gg5u4K8Xufs4afYdd+DnHrib+nfso2JK+c5few5bEuVvhtuoDZ1gR0H7yVSZWZ8iunzw9z8wKeYPnmMzW9/JyMjZ3Bpma8mX2QAAActSURBVJLtxQH53AzqSrR0LiVvNJFKSyEYGIt4g1ihtaWFtLOTrv4eenuW0tbbi4+TxFqdvJGT2PQXUjvWOEQg5J5zZy5w695d9PX2YdWwbvUqfvz4E4WEa6R43uq/8CiEMYbR0VGazSYDAwOLhRUiwtNPP83hw4dJ06I/ExMT1Gq1N5xcFUyCGoU8Y+z1oxx46NeojY8TpsaYGDtHJJCWOlna1U/X8l46Vq5hpnaJicuXGbl4jFvf/3EuvPw0A/vu49zgC1w6f5y1UyP037iVpFLi1nvv48Qrpxi5eIk4Veemdz2IRGHzbfs4+eT3SXv7ueW+9/PiD77B1NmT7PrAZ9l+9we4dPg5fKVKyVVxDpJqG1OjowTJqXZ20rl2E9XJMZavXs/hH34TbdaI23dgTEru62S1EUyzzuTZ86zdtIXXTE7MPfn0FI2QM3ZqkM3bd+PHptlw192UOzuKuRDFppF//rnPcebMeX7wgx8sRlH7P/zmf/fbv/97v8eMD+y9+z7W7dlPrCbUz5xmxcB2djzwYcqdy+nrXU7atpSLrx7jwitPs37/+7hx/3tp617OY3/yb5m+coGZS2e54W33suzGPbx++HmSxjTnjr3C+PnTbDtwkJ5V6znx5OOQ1Rm7cp51t9/Fjvd+hg07byHWp3n6a39C9BklV2Ln1u2cP/sa4yNXqBuDtHXztgc+zorte6G9g5Ub1jM5O8PIpcsQlVJUtm7fjg+eo0ePArBkyRI2bdrESy+/QtaYw2CZqzfJsiZ3vv0Amzdv5MXnX+TVV46hKoSglNISu3fvYmhoiAsXLlwTPRfeF3BkkiS0tbUxPj7O6OjoYtScnJxkbGyM0dFRZmdnyfN80bEFwYjDaxPTDExeHqZZaeWWO9/JqlvuoB7miCPjbNl/kC3vvJ9qSxf9azaiUubKiVc5++JPufkD/xWb9rwDHyI/+fMvUJscY3boDDff+1E61mzghe9+A5vXuHTqJLMjF9l933soVVs58tj3qM9MsfnG7czONXnm248wMzVLoznOpl13kpVTdr77Ibbddjertu/jwuHneeUn38FXWrjl7gdZs20XPes2cfTJ7/Lay08zMTWCOOGW93yGTXv207ZsFVdee52RCyew1Rb2vu9htuy+i7bebi4OHmVyZIilN2zlpv13MXbuJFMXzzH++iBZyOnq6mD9ps0s6ehkcHCQ7u5uPvShDyGXhs7rnfvvmdd0yxhjyfImEuYIpoWySdAEjBoaPoO8Ad5Da0qJdtRkNOdysuApk0NHF4n3RG9QmSWE4tFZlySoSbG+Th0hKTISbNqOM5EQmjTqHrRJtaXMxz/xKZ55+ilOHBkkI5ICkqaUkxTFEEMky+vEkOOloFke/sTD1Ot1vva1r6GqrFu3jvvvv5///J8fYXpqFKOOXCEpCWmaEAV8I+CbOSqKcUK1XOHXfu3XOXToEM8888w1kfNqDXmBG11wvIUiiaud+foES1UxYuarijwmCkFKVMogSQlIaeYzGPVEU6VqLMEJEqARmpBnuBiIrRWcVhHmmJtThJwUMO0dmBCIGQRTQ3PAJbgkRfA0c4MJdWKpjIsRX5/DomQlR6tpAQKYjGiWgPHEhifkNZau2sie932SF/7uG0xeOkOo1cmbTaJ4SqUySVLFW0P0DTT3NPM6pXKFkmtFTUAbEXzOtIm0JAnWRkKIhGhwMcenKf/8E5+gu38Zf/Sl/8jly5e57bbbCi1exRLF47OcPM9YFFURlDo16lDXq47PZ9ezOTXGionHUEB/gamJ4r0Q9IpBIzTzHKFGPn+z8uJCfDZGUyDGgLUJEcjzwMzUFAcPHGTbTdt55KuPFBpDo0Zo1ll4Dl9RoiqdnZ088P7309fXx6FDhxbpoFqtRp7nfOxjD3HkyBGe+MlPCuUmU3zm50cpiCmy8xsGtrJv39twzjE1NbVIKS2Q8tc7XgjhmverHfHNbKHPxb8NUQTB02hGaL4x90Vrc8yyMO/zdbpABuhMHU+dxe8LQMlRmJq8uhfMdw7fbCwejargZ8nmx54jmGakpjPFEw0iREZREpzmqMDE7Cz1SyeZmLhMc2YaDWH+WX9D1szIs5yFvFsKERvfyAhMFP3Wop82QtNn8zUOxbiCGCQ2+ca3HkUEhoeHi34uLPYrV67oe9/73sXS/l/FF4hd/zz0gjNcLSEuUDRX29Wa7YJZaxcfJXizSPZm7Vx/7Poqm6uzyn8q5sVgQhNnDJmpoAg2Zotfv/GPaSLC7t27+dKXvoTkea4LmO1Xab/IAa6WEd+MfF9QHa7+/5vZ9fWIV7dz9VOF138Txj/Vr6TMYiQ1Wmj7JBgRnAb8dXWb/1hWqVTYtGkTEmMsynivihq/Kru+yOJ6/nHhnIWCkDerxL46mblaO79egry6vcXKpaver2/j6rb/KZgqEIuKr/maLuCNBfyP97nXBqn/B3jLY8/ztxzqAAAAAElFTkSuQmCC;" vertex="1" parent="1">
          <mxGeometry x="330" y="872" width="168" height="33" as="geometry" />
        </mxCell>
        <mxCell id="_wjk-Xj_CM7tvn-0b_mo-28" value="Text" style="text;html=1;strokeColor=none;fillColor=none;align=center;verticalAlign=middle;whiteSpace=wrap;rounded=0;" vertex="1" parent="1">
          <mxGeometry x="380" y="730" width="60" height="30" as="geometry" />
        </mxCell>
        <mxCell id="_wjk-Xj_CM7tvn-0b_mo-29" value="" style="shape=image;verticalLabelPosition=bottom;labelBackgroundColor=default;verticalAlign=top;aspect=fixed;imageAspect=0;image=data:image/png,iVBORw0KGgoAAAANSUhEUgAAAGUAAAARCAYAAADEz2IYAAAKyUlEQVRYhe2YaWxdx3XHfzNzt7dzFyUuT1wkU5ZoUaIouTYdiZYqeamXOhBSyG3dpgUauLWbonILowXcLy6KBkXbAAmaBEaB2AHqKEoLB1AMW4xdw1BLR5JlWdZuU45EiotIPr5HvuUuM/1AyWYjKiiBtEVT/++Xu8ydOWfOOf9z5ohsttVgDEYIMACC6zf/DRAYIoSxAYkUIVpHSGFhhF7eqsYgEWgVQWQRCYHCB6zlTIIxIHARRAhCtDZIZaHRy9JsKQgMWoOQEmlChBAEKCQao0EoC6kjhNDgeLz+6qtUVVUhlYqhnQy2dAlNgPk5CHNrGJTWSBERmQih4mA7+FZp2W6guO5EERijCKwEQizHICCMwZagTQUtFEbFMZ4gkJVlSnML6AihJFpaRIDRIZYApRRlK46QCik1UkpsDLZlUV1djazrvJ1Hn3qWWP1KPNtBGPHzEegWsNwk6/fs5eE/eZ7ehx/B8eI4QWzZ8xhhCKVAWS6NbZ3ct+8JYunqZc0hpEVDZzf9v72f+//gGeo62rC1jRW5y5ZnaRkldjLD2s134lXVY5SNNhovU8OvfumPqG9qQ9s2Za3QRmAAYwxWLJHgwnvvIGUEWiEJbxkrQgiEEGQyGfr7+xkcHKRYLC45NgK8eIy4WwVJC132KRfyREHA8NAbJBNVuF41UkogRCJwU9XEM1WAYH42h1/M43gxdAQRPhiJkg6GkKg8TyJTjZdMUdWcxc3U4rg2JTTxqpVYCQ9HSIpTk8wHZQjDmzcNw+Sl85TLFTbvehTbjgEGTIhwEqRSKWzPIwh88rkctgTLdhBeAmUrXA3TU2OYIMT2ksRralBSEAiDLIcYFRGva2bTzocgNEyOXqAwXyDmpXEzGVI1DVRkRHmuBIUphBAopbB+5U+/wuSpdxk7MYQfKeQNTljCIJZlkUgkePrppzl16tQtDQLgIkjWN7P9d5+iYc0d5C9+yOC3/obclbNEUQWtK5hIIKVBKNDScMd9n2frI7+B67q8+Z2vc/L175Hd2ENd022ceONlXK+Kvod+naM/eImZCUPPfY+z9YF9OAnJR2dOY0USqWLc/ZtfZu1d96B0xGsv/C3n3j5EFBiE+JQFjDEIDEb7RGEJrQMkGqkEaAm2ZOeTz7Bi3RaCXIFvP/sErit58Ik/5OOrEZv33ANln+8+v5+piUu4yRiP/uULpNNpRKAZO3uUfMFnbe8m3BUtNG/ZTmn8CoP/+HUmpkdxlcvm3Xup7dlM4cL7/PCrf3bdQcE69JU/pm3j3QS2QlkROtQsRWCO49De3s7AwACHDx/m3XffRQiBMTdnAyEEXlWGnnvu58Mfvcng3/8V5fI8lHwCI1FGYwRoAUZrcBKs7evHiyV48ZnHUY7D1gf20dJ9J0I5SOURhHHSdgZLuNhugjt29BGFRb69/zGqmzvpvGsHYcyjZVU3aRlx8M+fJDd9jbAwgQhCpJRorT+RWcoF99MGhNEYIdA6whiwU9X0ff6LnDt+jB994+9o7d7Ijn2/z4lXv0ug4iTsy3z/+afo2DjA2v4dnHnrh2y7/9d45+V/YOrMB2zbu4/hkyf5+PjbnDhYQ9++3+LY919mYvQilH0yDU1UlMXV02/y1oGvsn7gYVb13IVyFmjTqhQjdFjGMgYZahDmlkl3+/btpFIphoeHCYLgllGCEAg3gZVOM/FvH1HIT2DCEBkZhJAgbKQBaQxIC4Vm5eo1zEyNMTs2CkIwPTVOQ0s7s5PjRBgc20LrCF+A7bjUdXRx6cdvUywU8Ap5oqAMOmBqbISrly+ybuB+KvlpTrx2gFLJx5SLnxhksTMJYWGkQhqDkBKEhRtP07Aqi60E9bseInRdbC+FUg6RMVw+c5rZa9eYmrxKa8dalOUSr68mMV3NfMzFwqaYm6SYv4YUiqhcojQ3g1+YQRoLPwqRc3OMXDjPfD7HXH6OWCy5sD4ghQgwThzhpNCeS3T9w0/D930OHDhALpejv7+fVCp1a6MAwq9QKU/gCo2jkiBcjAcoG1tJIsvDuEksKZHKJixJXCdBzHOwlcRz4gTzhiiKsJXAkRrHs/Ach4q2iAplIlsQWJCoW0HKcRFALjfGv792gB//4AWM1vQ9/CVi7kIhYVkWmUwGz/MWlJcWSimUtAjtOMpyUQKiwCDDCqffeY2jr/8Lx155kcFvPUdYmME2mtCUiUWQjHyQGqGhXJhlxxd+hwef+wb5oMLI++8QhBJLO1g+CBlHWnGUpfFMQDFSRMZFhhV0pNHChescpR758nN/0bquFzeTQoZlStPXiMKbo0AIQblc5uLFizQ2NrJx40aGh4cJw3BJClOBJN2UZc09D9DStYHqpiaKU7PEU0m6dz7Cmm0DrFjdAcomPznC+OUzrO67i44t97Lmzp2UKnlOv3EQvzTHmm07WdG5gfruraSSaS6deIv5/Ay9Ox+jbc16qjt6wJaMfnCShoaVrNv5GLdt2kFdWxeXTx9h5Nz7CKC+vp79+/cTBAFXr15F2g4dvXfT9bkHaN+8jVTtCowQ5MYuMVcosOWXv8CKzttpvm0TUipK5TyN3VuZGr7AzMwkqcZmvNoVTP3kIu1bPsfExx+Rm7yMnitSnJ+lmJ/GIqLu9vU0r9/EqmwXhcIsSIfW7vWMnT5JKSixqq0THfo8OHA3yXgMsXvf7xmhFIFfInflI2bHRwn8pev0G1ycTqepq6tjZGQE3/fR+uZ6TQpJvLqW+o51OG6M+fw00x9/iJCK+uwa4ukMQixUWROXzlGZm6W2tYPapg5AMz58htmrlzHKZmX7baTrGpmdm8OUCuQnRgiDgFVtXXjJNLO5WaKgSGFqDNd2qcl2YrsJMJqfnBqilM8DkE6naW5uJpfLMTExAdKielUrVY0tWI6NjjQzYyNMjwxjdETLuk24qTQ6CpkZvUwpP02ipoG56QnCUhE3mcZJZpCOza4vPssHbxwgqPhYbpyW2zdz5Dtfozg9SXJlE9UrsxBqxi+dJ9IhyZo6CuPjaOMTz9TgODH++Z9epGllIyKbzRohBGEYopRa0us/w8/G6g297Hr8Sb73zb8mqBRpW7uBzo2/xL++/E1mxq7cNH5xbgPQWuO6LocPH6a5uRnR2tpqFie/xWXjZ/ivwXITZLs24FTVAAZhBCNnTjI3M0kU+kv+c6MSvBEItm0zODhIIpHAamlpwfM8lFKf1MmfYXkwUqJMETFTASFB+6yqSyLqMz/7v+usND8/z9zcHENDQ5w7dw7x0ksvme7ubhoaGnAcB9u2UUr9T+jyCwMjNNoobK3RSBQhgRTcuG4abwy+71OpVCiXy5w/f55XXnkFYwx79+5FHDp0yBw9epTJyUl2797Ntm3bqK2t/V9Q7f8uhI4WGppowFw3jERgWOok7vs+p06d4uDBgziOQzabpa+vj9WrV+M4DmJ+ft6Mj49z5coVjh07xtTUFAMDA7S3t1NXV0c8Hl84/X5y2FpYZfGz1vo/Ud//h9y0WMeFlg1oYxBSAOJ6q+DT/apUKuTzec6ePcvx48cZHR2lt7eXnp4eamtrSafTWJa10F/UWpsbEwdBwNDQEIcOHcIYw65du+jq6iKZTBKPx3EcB/g0SS1uXfw0flGNspRz3ni3eD+EEARBQLlcplAoMDY2xpEjR3jvvffYs2cP995770KfbFHb54Zj/wd9SMDL+UTB1wAAAABJRU5ErkJggg==;" vertex="1" parent="1">
          <mxGeometry x="373" y="736.5" width="101" height="17" as="geometry" />
        </mxCell>
        <mxCell id="_wjk-Xj_CM7tvn-0b_mo-31" value="" style="shape=image;verticalLabelPosition=bottom;labelBackgroundColor=default;verticalAlign=top;aspect=fixed;imageAspect=0;image=data:image/png,iVBORw0KGgoAAAANSUhEUgAAADUAAAAQCAYAAAC2hzf1AAAFVElEQVRIid2Wy29dVxXGf2vtfc+178M3uU7TOMENjR8BtUS0zaNpIhBqUSWYMOugDBgwjRgw5KH+BQwQjBgxQ0wqVUgVBKEyaARJBQI1NSFpABM5fsRpfO1rH5/9WAz8gMj3IgaMsqUzOFtr77W+tb5vryUXLlwwnqB15coV/ML9RRwJsUyUAiVhBqYOsYyIkBEkJ0wcIhnMUHb2TQwZkhYDHEoGRAJiShKPWBoalKqSc/7fEOw6VnNkSWCwsb6OmisIroBaQUSI2YGrQU4IhlhCzBDnqUsCy3iXSSY4IinHoT59VjQlsjrUt4lWB4YD2k+G7QT738AJilIgIuAUFcVJAaL4T517ndGTLxJX7nL/d29Tba5DSoAg7FQlY2iKJBL18UlqzUOUC39HUolzGQb6NpIraXUmeO0b32b1H3f4869+TrWxhYkbCibGiPeenDOqOhRUxqh7x+nPnaQ+1iGVm/zp+m0QwT/88D2e8gW1zjGC1sHWEAQ/0kRGxlAVXLlBLDegdZTxmfM0j08R3n+b2P8Eqi2SVWCPc1DUIUWTZucIi3N/oLe6gGVDVUlD6CoiiAgppf3/YWukXnDqM5M899IMCwuPmH1pCnAUhcdXIVGlCDlQSCQYBD9C5+QZTlx+A1+rsXj9HZbmfs/xV7/J0xOTWOMIMxOnifdvcfs3P0N6ixiPR6rOMTk1y9mvf4vRVpcPfvpjaqGgNEU5iGoPkKrinCPnjJmRcx5Iw5FGnUtfepl3fvEu/U8CSw+W+OIXXqHTbeMRcCY4E3KGXKsxdugIh099nn+++yNy3OapF7/CoQfzLP7yh6TnX6U5+Rwf//onyNY6pLyvgcfoERP35j5i9Qff4dzX3sS1RwhFRU4RtYP0azQaTE9Pc+zYMbz3AKysrHDz5k36/f4B+874GN5DwzeZfuEoM7OfpdmuM9ZtoYiSzRARTBQFRg4/jY5N0Jl9mfbpy1A0oD5GrLbI1SYWKyj7hBgJOcOAzJtlkkVyVUFVoZaBGjUbrBNVpdFo0Ol06Ha7dDod2u02zg3Wn6CMNJucPf88GiK/fe8q21sRkuJxBVorQB3i62Spsd3vEzYe0P/L+/TDNjkmcrUJWlCljIqhrsaobWMpUOUBjkVJWuyIvjaG1ls456lqDQhbB81FmJqa4tKlS/u0m5+f58aNGwNBbfb7bG6VzN26w8KtB0hLyElZX+vhZl/56lvt6fPUx09A2MLKNeJWj87EFH5ilvbho7hWl9hbgXIN3+oyfuoM0jiMbx5iq9/DYjhQLV/UOPrMCaYvfplnz16k2R0nxW16y3dJ1cE2EEJgbm6Oq1ev7n/Xrl2jLMuB9A4hEvI2r71+mVa7zgvnz/DB9T9y8vizuPGJybfKh/fp35sjbqxSPlrBqj691WXMItZfpdzcID5apMqZ0F+jXFuGqk+5ucH2+kMsVQMzr36UmnoWP/6IR/f+Rm95md7qCjmGA/Z7z3kIgZQSIQRCOGi3f38WVldW6T3aoNzM3L09z18/vMPFcxeRTz9zwoI5sgl1iSAKscJ53W1XiSSjmBhFDkTxJPE4IojHTBAGN2AFDI8RUPVYFlQq0gBd2a6uH0uK6v7zfuBuc+SUkGJHX9mUFALf/9538SYOB3gxMg4Dcq1JtkT2ggJiCRUlaIGQ8VaBesgJB6Qh7SSK4SxhYiSLkCE6YZD09wDtgdt7yof1qiQJ8ZBTxADB4wolScbPTE8DewcNEyWj6N58JgpmCBlDdm0zKoqZYShDRop/B7urCWP3+P9rhBbB8n9UWIzxbhdZWlp6oqb0VquFxBifKFAiwr8Ay1+olm9JKnAAAAAASUVORK5CYII=;" vertex="1" parent="1">
          <mxGeometry x="387.5" y="577" width="53" height="16" as="geometry" />
        </mxCell>
        <mxCell id="_wjk-Xj_CM7tvn-0b_mo-38" style="edgeStyle=orthogonalEdgeStyle;rounded=0;orthogonalLoop=1;jettySize=auto;html=1;exitX=0.5;exitY=1;exitDx=0;exitDy=0;" edge="1" parent="1" source="_wjk-Xj_CM7tvn-0b_mo-33">
          <mxGeometry relative="1" as="geometry">
            <mxPoint x="415" y="1160" as="targetPoint" />
          </mxGeometry>
        </mxCell>
        <mxCell id="_wjk-Xj_CM7tvn-0b_mo-44" style="edgeStyle=orthogonalEdgeStyle;rounded=0;orthogonalLoop=1;jettySize=auto;html=1;exitX=1;exitY=0.5;exitDx=0;exitDy=0;entryX=1.002;entryY=0.63;entryDx=0;entryDy=0;entryPerimeter=0;" edge="1" parent="1" source="_wjk-Xj_CM7tvn-0b_mo-33" target="_wjk-Xj_CM7tvn-0b_mo-42">
          <mxGeometry relative="1" as="geometry">
            <mxPoint x="690" y="1330" as="targetPoint" />
            <Array as="points">
              <mxPoint x="690" y="1060" />
              <mxPoint x="690" y="1328" />
            </Array>
          </mxGeometry>
        </mxCell>
        <mxCell id="_wjk-Xj_CM7tvn-0b_mo-33" value="" style="rhombus;whiteSpace=wrap;html=1;" vertex="1" parent="1">
          <mxGeometry x="285" y="1010" width="260" height="100" as="geometry" />
        </mxCell>
        <mxCell id="_wjk-Xj_CM7tvn-0b_mo-35" value="" style="shape=image;verticalLabelPosition=bottom;labelBackgroundColor=default;verticalAlign=top;aspect=fixed;imageAspect=0;image=data:image/png,iVBORw0KGgoAAAANSUhEUgAAANAAAAAPCAYAAACVzEGOAAAU10lEQVRoge2aeZBd1X3nP+ece+/bX79+3a9b3VJLrQ3ti7WvgANaLLAx2DFgPLHBmMxUbFfCJJmZqvFMKs5MknLFY5M4NtQkLq9jnNgyxgsmAksgJCFQSwKhXWqtLamX916//W7nzB9NS2BaIE2YP2bMt+rV6/vu6d8953u/v7P8fj/R3d1ttNYYYxBCoAUoI7ClQ2AERgRgPIyRXA8EmhCFBKQJEcpCC4kJgzHbG2OQUiKEQEqJMQatQ4zRICRCjNwzRoO58n9KKYwxhGF4eQyjn8t2whBjwDDyO1ojpRgxI0bsWJZFGIZorV9/jhmrm9fHgdFooQCBIgQhMVJhdAjXYV8gMDpEyNFrhQEM70IfEYxQEiClQGsQQmEIAQFCIKQc4dyY17t97c81xoBSaDPyLLRGKoMMQkIlUaHAtwS21hhhrltnoAEJUiCFvKIPwxicGQxj6+lq71sIcVkTQgjCMGTChAk88sgjzJs3D+n7PkIIlFKvj9gmEo+SGtdEekI7Mp6A8HoHNSJWow3CgEKhIk2oRO6qnRRiRMmpVIqOjg4ymQy2bSOlROkQFUuhcl1IYREGAWEY4jgO2WyW1tZWmpqasG37siO2tLTQ3t5OMplECRuFRAiNET7CMiPEYdBak0wmaW5uprW1lXg8frkv/2qI1znQBhuJspNYqY7rs2EMJvRBSbRUaCEJdYDRY09E1wujA8IwAGURoDBCYrSPxCCkxNIGmc5htY4HPcrbtUMqhQprxKkiQw+BwQQNAumgjUFKH4WPBzSIXPeUIKVEobGUg2ybiHLihL43JmeY8IqeInFU20SUtAmDq3P5xsVFSnl5Uh69Vs3NzX8GVzxQmBAnlaF9xiJWfOB3CVyPwrnjmOsUlTQj5BkdoqVg6vKbmLv6Zk7t3zVmeyEEsViMDRs2MGHCBGzb5syZs/hCEdGGrvnLufW+Bzm44zmM9rCUhVKKBQsWsGrVKjKZDGfOnEEIwbhx41i3bh3xeJwgCBgYHEI5ks7Jbay8cSmz5s4kEo9SLAyDEaTTaebOncvKlSsJgoDBwUHCMLyml2dZ1lVnL2kYmb3RhMIwfs4iVtz+UU727MDoaxSiACMEkWQzU2YtQNgRvEYdYTSGd3on1/bOlBMhnRtP19QZVGo1TBggkLhC4mjDotvvZtktmzi4YxuC0X6/0bYZ81lCCOxYgmlLbybWPo1GYZBMroPZ6+7GL+dpnzybOR++j5nzb2TS7AX4lQpupYi+Vm6AUCiUNiQy7dz+2f9A/8kTVIcHYUzODL5Q2NrQPn0eG+7/LId3vYAJ3bd9hpQjC8joe06n02zatIlcLodlx2PEY81gCQK3QaM0TLVY4uTu7cxcuoaorcBYCOUjVJpoPIkdExC4uHWDWy/hRBJEHJt8uUAyniAkjl+9gO0oIpEsVjRNvH0iiVQcIwxxJ0UQc2iKxGh4DcK6S8OtXl5BTpw4waFDh9BILCFwMq2EjRKvbt+CYxkCd2RZbTQa7Nu3j1wuh+M4WJZFEATYto3ruuzfv5/BwUGEABzFsrXvI99XoVQbZs36VeQLRfpO9tHfP0BPz146OztxIpHLhL0dofF4nClTpuA4Dj09PWM6UUiIFZFEnTRWNEOyvYtkJoUSChFV2DJOPB2n4dbA86nXKkScGCYeIepECX2f0AuohzWas+3MXrWB3qN7MYGHW6lQL+eJpVtQ0sI4EaQOaHgVvGqdZDyLG/g0vBpN6SiuG+LVGjgRgR1rwo5G0b6m4VeQSMZPvIGJC5dSdWvUhiLUqjWiQYN4Uwv5M0fIXzyLFBotQhAxorE0TlxijMB4deq1ACNdkokWhGOhtSb0Q7QWaB0y78YPUT57gs55S8h1TefI9l/RPb6bXMdkTm/9BanxXdz8iT/gZ1/6Q6SdQkUi2BGF8QPchsCrD2HZEVQ8QsyO42ofVfMouXWcVIZkKsGRXVvxa0WEssBWb+GsXqkS1so4TS1I7fHajmdwLIMvDCCxIhliCQdhKYQ/TK0mcYNhUvE2VFRhpCT0AuxY4vIEYU2av5Jln/x32NrhwoHdvPDtr1KtlEbOCEZilEUoNZZrk52a5eYH/pBo5wws17DjB3/LsZ5nWXXXPTR8xb4fP8akRStYsu5D/OC//CeyufEs+einGD9jATKR4PTh3SghSHZ08juffphEazeNSp5t33+E83uvrEyjYrRMgK3iLL77Qaa970bqxQpHX9qOxFw5z4yB0d9H7WgZkkpEaYqn2bb/ZQLjM3f1RLq62uk/10/gBVdmmbfZRIzajcVirF69munTp/PEE08gpRxj1hRIUmTSbSy8414mL1yJlUgymD+LpzTN2RZuvOdzZKfNJmw02PrdL3PulT2o9jbWP/Aw4zpuoFbM8/yT34JqjdX3fIbm6bOYtGo91aEh9m35Z3p+8TgL77iPlq4uYk0tdKTa2P30T9jz1A/5yJ/+V176+Q85te8FFm+8D12psOsX3yfVPpHFH72fCTMX0xi6SM9Pv0+2cwoLNt2Jk2lh8rJbKF7sY+f3v8rg+bOseehP6Jq6iLOHX+XYi7/GatjEMg4LP/xBJq3chG3inN23nV2P/yPp8TNY9cFP03LDDYjApXfvs2x7/H9y9vh+Ji58Pyvu/xzGDzj81HfQwxdxG1VKl85wYPdzxHIdrJ+zgtSkJWhvmHV3P0i0ayrSGLb/4G/p3bmDRK6VtZ/6PBPGzaVQL7Jz8zfwdz3PjJtvY8H6u4ioJi70nsQp9DNh5nJW3/tmzl7Z8k+8+ovHWXDnJ5i5/FaCuuboyzuQocCSkgnzp7Lq45/HirURDBd4+u+/yNBFuPPf/xWesGhuH0d1+BQHn3z8igPNWfNBnv7LL1CvD4Nbo9FoIIRGaQ3GEGqQtkDGk0xdup7TL+7myL6v0NIxgWUf/ST5owcIrSiWH+AZhTBRIIqMwYz1t3Hu6D52fO/L3LBqE7muGwDNlEU34hfL/Pyxz1GtVQhqxTEFqxF4gctLP/g6/UcPMHXFrUQCj9o1bk1GYUVsurun0vB8Vt20kEw2jnEdUqk0yha4DR9jQgSg3sF2e3s7GzdupF6vs3nz5qtv9wRIJ6Rr+QrKpSE2/8VDjJ+1jJkrP4BtNDNX3M7QhXNs+8k36Z46h5Uf+jQ/2b+bG2avJOIL/ukvP4tXrRG4VYKGzxN/d5EVd9xD32v76Du4l1K1gBEuColtYjz36F+RyLYybeU6YokUvhPDNwodOHh2BM920SrCsg2f5NKRI+z6zqOExoNajTOv9tB39hjT3reMQ8/8jHKhH7daIgw12x7978y/7T4SmRYi2hDEHHKTZ5NMdvAvf/MFBIZFt3+M3JRxhIEimo2z5dE/Bz9g8YfvR8oIwXCF/U99j9v/45fp3b2Nvt4zuGGIQKOUQyRi0dbRgTKaermPWWtu5egruzj6zS+T6+hm8V2f5OKx1xg/cymxRJYffumP8BoVvOoggdEcfvYJLhzex8p7P4vt19F+yLnX9ryFs2qlgK8D9v74m1w6/Apz1t1FNHCp2jaJXCcLN/weu771DQYvnmXq4hVMX72Kyi83oxyHky9v4dSLz7H8zgfITpp5RVu+H1ArnsItVWioGJYRCGFh6QiBBUKACkOcjEMik+HE8X0MDw0itIdf8XCaWpFSUZVlsMCWEtdWRBMxMq3jOfzrzRSGhmlUytRkiG9senc/Q6wpxvw77sWvDbP7R9+Bev0tGhwJ+Ahq1WEaw3kifogWISO7/2t3IhkawhAmz5rEvp37ebXnFZpykxFhiOH16N9olOhtYIyhpaWF2bNn89Of/pRqtYrrulddCS1b0dw2ntP7t1MsVsmWy9SEh7CjJFpzTJo2i0RLG7F0CoXARDOceeV5msdlmPfBexHVKi/96NvUgjJWeYBGeZhqcYh6oZ+G5yEtG2nZXDy2l77TvSQKgwyePY1fb9AwAdJ20MIiZjQBPqEMyEyaxNGef6E+cBxfxPGFImX7eKV+aqUS1Xw/9eIQfqhR0qJUHESXyjjJLKHQSEeQaeuk7pYoDg3giIDyQD9O8zgqhQqV4gD9p46QTOZAa4wQWJYgO7kbZQzp9i4iLc0M92ssBBNnLCH6wJ/iu1V6fvSPyDAgkcxw9LU9VIoFDAH1MMBOtdJ3eB+pzlZmffhuRKXEy098F1P1aTRqqMIAtuuD0XjaR2Dewlnd81FI6rUy9eIQETdEE2KUId3SihW16O87Ra04xKWTh5i89BZwkrjSZ+DkIapDg1Rdl+ibtKULqGgSIyPEA4UIfUAS2HF06COkRAgHqlUCt0qsqYOIFMTjOaxEE65bJvRDmkQWx1bYLRlsbNyGT1jziKc6SaYiZLq7kUJjRMjQ+RM8/+2/51ePfpVoKsmCjR8ZU4ACiTACXziIaJRQhvjGAelcs/MAEMDFS6cZyA/yyv6jnDqWp21cC4NDg7g1byTEKSRGgH6H8PKRI0f4yle+wpo1a1i1ahWJROIqfQfPB79cI5bsIB6VNE2cgGVLhOsSVIZ4+Vc/Z+s//BlPfOlP+NYXP4/XKDE00Mez3/46z37jbxDCsPh3P41xDVpKQu0TiaaQMkEUi4TvI2plAs9DBIawWKR8sR9PuziuIGIUKqmwm1twUFgCyvmTqKiFduLY2ibqg+9pQilQlsSJpFEiiiVtNKDtOCYiCYUmEFGEF1IuXiASbyZqW1giSTzdDhWPSOhhmxClQYs6wvKJCUFmUjeL1n2MXZu/w/CZ40xffgsZO8AYzZkDu3jy0b/myUe+wOE9O6gNFwgaNVIt4xHKJx5PEpcC6hUKl06x/btfZ+ff/Q9Mrc6Nd/8+SipCFCKWxKhwZBck4+Dqt3BmCQuBIBA2xGKEKsQzNsJY1IoXsVWEWCKDZRyasl1IrbB9j4jvIhGEwsPSNYx1RSNWtX+IG+//z+h6maHTh9nzq82MnzGPObd8iMkz5tGam0SmfSIv/eQfOLF7JyvvepDJS5Zj2xFeefqfKV06x9nDB7npI/+GW7q/iO/5BLUqYb3OmaMvseRjD+IP5wlqw7jVGpEwYO7Gu+mYsRjHBicW5dVnnx5ThBoNtmL9x/8t46bNJ90+gY2f+WNee+4penu2X7v/6JBqIeT0oXPcsmEVvucxXCpyrrcPwchBeBTmbRahkdyUpr+/n8cee4y1a9eydOlSdu7cieu6b2krfZ8Lp19jwe2/x5QlqyFoEJYrhAQc3bOLRbd9nIkL5mG0ZvD0MfY88V2mr9lI9/y1SFsTd2LsfmozwjYEww0unTzNytvuZOqS1ZzYs40jO39NXSj8UCMFeEKDBB26HH/pRWbdejvT37+RUnkY16vhh3Dk+a3MWLuJG5ZvxC3nOfDMZi71nmL41EWiK2Os/sRDVApD7NuymeLQJTZ+4g8YN20+VizJhgf/iL0//19cONnL5Ll11n7q80gtKfSfp//YfqIdXbieITSSUCuChoZkkhkr1nP6tX30vryV/rZWVt/1EPULgxjHwQsq2F6AkFECERA0ahx/eQcr7nyA7iUrsC2H/c88Sb6/jynLbmLqot/BciRWxOHgM7/EJWDx+juYsmgtucmzuOnjD3G8Zwf7f/nDt3B2fM82Dr64lfd/7AE6ZryP7PjJfOAzf8zhXc9y/KXnOPj0z1hzz+/julWEEvT8+HvU6iXKfogJBIFRhD4QXNmyi5lzF5r0uAlYloVbLZG/eJ54qonMuE6ksNA6xG/UGDxzEst2SGZzxJoyuLUqlfwA9XKRaLKJZDZHJJXCrVZxK2UqgxeIZVpINLcSicZplIu45WEq+QEyEyYTa8piWZJqYYhyfhCvViGdTrNu3Tp6e3s5ePAgDdcDqWibOJlIPAVCogOf0uBFSgMXkFKSTqdZv349ruuyZcsWXNelq6uLFStWsG3bNgYGBgiDEKkk8VSMpkwKKQXFQolapTESQFCS5uZmbrvtNo4eO8renr00Go13dMxkMkkqlWJwcBDf999yXwDRpmaS2TYisTh+rUqjMkyp0I/txEhkcqRachhjqJeL5M/1km6fQCLbilKSerFAJT9IvTIMRhJPZ8hNnEQYhlQKQxT7L5BsacOEIdXCIKMZRKEUyaY2EtkWrGiU2nCReilPo1zEjsRJtXYQb8oSeDVK/X1Ui3kwiuZxHaRaWgmDgPylPgLfo33SFKQVAQNh4FPoO43fqJNsaiGWbcEYM6KD4TzKtkm1tDM8cBGpFOlsG41aGfF6srs6nB/RUFMWv9FAKIWyLcr9/QSBNxIaMhBNpEhmW6/orDBIo1Qklesg2dKGVIpGuUglP0itUqKlo4tkcytCWOjQp1bKM3Tu1JicFQYu0j5xCtFk04ieQp/KUD/D/RdIpLMkW9uwolGqhSGqhQEC3yXd2olbq+A3aqRb2sk2pfjr//bnzJ8/H9HV1WVGo0ijGfjRb6UUWmu01u8Y2v3XQkpJMplk06ZN1Go1Tpw4weHDh6+ajxFCEI1GmTlzJkuWLGFgYOCyA3V2dnLzzTdz4sQJTp8+zfnz56+aW5ByxHmmTp3K4sWL2b9/Pz09PdfkQO/h/x/8ZvXJ6PWoP8CVqG5nZyePPPIICxYswBq9OdZB+HJy9d3KzL8NjDFUq1V27NhBKpWiPkZQ4TfbB0FApVJhx44d5PN56vU6xhguXbrECy+8gG3bBG+TZYaRTHMQBJRKJbZu3cqlS5fwPO/dHNp7+H8Av+kwb1w03ugHo22AkQDS8uXLTSwWw7IsAGzbflPj0TKbN3riu42reTow5so3Ojjf9y9XAoyW8LzRzhtrmMbqexiGKKUIguByLdxoicZ7+O3B6NkW3lx1MKolz/MIw5AgCCiXy8RiMR5++GEAxNe+9jXT0dFBZ2cn2WyW5uZmkskkxpg3OdPVRPhu4Te3kKPO8E4YHehoUem7Zec9/HbhctJd68uFya7rUigUyOfz9Pf3c+HCBfr6+jh//jy+7zNr1izEoUOHTLlc5tSpU5w4cYKTJ0/iOA6zZs1izpw5TJs2jaampsulMpeLTv8vYFT88M7bxtEBv/HMNurk/yd23vj3eyvQbw9GHcb3fTzPo7e3lwMHDnDgwAGGhobI5XLMmDGD7u5u2traiMViRCIRIpEIlmXxvwGdsoj8zaEPpQAAAABJRU5ErkJggg==;" vertex="1" parent="1">
          <mxGeometry x="310" y="1052.5" width="208" height="15" as="geometry" />
        </mxCell>
        <mxCell id="_wjk-Xj_CM7tvn-0b_mo-37" value="True" style="text;html=1;strokeColor=none;fillColor=none;align=center;verticalAlign=middle;whiteSpace=wrap;rounded=0;" vertex="1" parent="1">
          <mxGeometry x="420" y="1120" width="60" height="29" as="geometry" />
        </mxCell>
        <mxCell id="_wjk-Xj_CM7tvn-0b_mo-41" style="edgeStyle=orthogonalEdgeStyle;rounded=0;orthogonalLoop=1;jettySize=auto;html=1;exitX=0.5;exitY=1;exitDx=0;exitDy=0;" edge="1" parent="1" source="_wjk-Xj_CM7tvn-0b_mo-39" target="_wjk-Xj_CM7tvn-0b_mo-42">
          <mxGeometry relative="1" as="geometry">
            <mxPoint x="421" y="1320" as="targetPoint" />
          </mxGeometry>
        </mxCell>
        <mxCell id="_wjk-Xj_CM7tvn-0b_mo-39" value="" style="rounded=0;whiteSpace=wrap;html=1;" vertex="1" parent="1">
          <mxGeometry x="302" y="1160" width="238" height="60" as="geometry" />
        </mxCell>
        <mxCell id="_wjk-Xj_CM7tvn-0b_mo-40" value="" style="shape=image;verticalLabelPosition=bottom;labelBackgroundColor=default;verticalAlign=top;aspect=fixed;imageAspect=0;image=data:image/png,iVBORw0KGgoAAAANSUhEUgAAAPMAAAAgCAYAAADHXE6+AAAfgklEQVR4nO2c2ZNd13Xef3s45049oxuNsRsTMZMYOIkzCFGUaRmmbUaWLCVS2ZHKD3aqVKnyQ56cfyAPSZykyg9KKipZMh2ZFCVaI2nOBEGhAZAACRAz0A2g5+mO55y9Vx7OuRcNQABpyRUFrv6qGrjDOXtYe62111r7O1eNjY0Ji1jEIm5bdHR0kMvlUFu3bl005kUs4jbGd7/7Xe68807sfHkehWp90bRsJQJKLfg0fS0iKKX4eKT3XL3z2m/SPpovfoUZ3KJfEcWthvjJ5/AJevslbf167V/vWz9Z27/+nBb2q677/Obt/ur9Snb/rdfqE7cDN+ixSjvI9PhaZfun6LFk9/wyPVZXh/Ar6/FNJf8Jx+icA0CLdiAaj0kbMxAU22jr6KFQaENbjSAICQqTdiw6s0RBZwYLgsIjmUhTGQroAKMNOsxhwxwGg1PpAipRCBrrk08+cblVICGg0jGIWFAgeETSOYBGSCeudLpMIgJi0BoQC9mVKEnniUdhs2sVSvtM5IJCA4IXaXmmtH3VWhVjDGGQIxcGWJvLFicdy7Xwac/Z99pALgzJhWHalkqvSefYGiUiHqUVgqC1wotPF1YbjDYYbdHaZvMkG/NCiflW+0oJQaDJBTnCIL0vCDWBVQRBiNKCoBHVdNQLZQlgMEajs/UVlY7yqkJm8lQKUS6dh2hQdsG6NWWzUIl9a92VUuTzeYIgyHrUOBUjyoPYVCMVEGhypQ6KpS5y+QIYAySZ7Jtrq1CZTjRXVOGbmpSJJV0TpQO0sZh8HmtDBJ3qMYBoRGmMuFvo5o1QWQ8mF2Dz7dhCHpUJ0xhDsVgkDMNr71lg3Ncbuja+jRwxeSo4EQqFLh76wz/lj/7b99jz9b+gWOoGCogq4HAEyhBYQAwOjRNwxoNWgMZbjwOMCYk9BBLR1tHOA09/hWVrN+KMYKSBczFJqIh1QqKDW05aRPDe472/tacSjU9CwlBQppzpvkVrDaIQVcaoAtom2WKmxqh06t2MTXcKcGhlERI0AZ4IrVT6vVcIMUonOIlRSmONQbyASrC6iDYNEE0QWnp6Q1au6mTFim76+wsUSxZjQkSiTEEFIUIpizIeLw5riizp7mbf0w+zZnApQZBerwiwNkCpzKGIIQgCXGQxKodzgtEhKCEXWpb252nvsGiVeXgFoiJSu0jwEmO0xRODKPJhO1u2rOHrf/p7dHYUaW/Ps2rFSgYGlrNsWQda2cynKFC1TJZRKkvxWGPo7CgRBoYkiVHKpHIXlb5GUCpM5+1CxBmCsA7UEW9RYtA6k03mKFLZGLTWKKVQSrF7924++9nPApB4i5V2jM9TUFW01EEH9C4d5DP/7i/58v/4e3b81jPk8x141Y5XFhFNYMBqjcMjhDgEbz2gEQ1Oe0QULtvAciphxYYtfPaP/z2F9g6cNLA0SHAkoRBJjFP2lnp8PZwk5AuWNZt38Qff+EuW9KwkUAqjNaVSia9//essW7Ys1V+ubmTN/6+3B6vzFh204z2YhiduVDn8w28xOzZC3+q1+MAixBgvEATkim04IB81qNeqmCCPVYKS1MMbpZDA4KOYYmgwhXbCriWofAlRAUZrtO0gtAW89sRxA1/3eKKbTrq5iB8HrRXWKjQhpXyIsZpGTZG4GqAoFTuzkK5EterRStLCgXYo2khcgzDIEccelKdYaENrSJKQeqOBVopcPqRej1AihMYS5DRRlGBNQLFkQQTn26hWElziGBxYz65d6+noKHLkyFmGDp4gqlcoFvKAJgxDGo2YKGogTpG3JYqFgGIhTz6vsdaAePJhkTBMo6co0sRxQpjXeC+EeYdCo7JFjyLYcMcqnnzqXi5fGucHL7xJpewJAo0iQBuDNZZG1KDRiNASUiq0USgYSsU8NozJF3I8cM8mVq5YwvjYNCtX9/LqK4c5cfwi9RqUih3p7ks71Yojn8tRajP8q88/yrsHPuTkiVHqcQ1tU0P3vhleCNpo8DZzXG0U8oKIpVGPUSrB5vIImjAIiaKYKIoQIJ/Ps3HjRnbu3Mnzzz+fGoRtEOgAcqV054w1Lo6YG7/EW9/6L+z8rS+gbQ5vAGmgRQjzBVQun7ryWgUSB7aIEgdGMAqMMmn0GNfIlXKYfAdhZzfeFkBbrLLkih1YZUi0J6nVkdjj+eRRZmBziMtRLdc4ceRtGo0JallQX6/XOXbsGLt372Z+fp7p6WmMMYikOuu9b21yLWPe/tBT9G/ZRKMR8cHLLzB27iSVcpnqzByur45NqhjAFIp09i7jnt/5I2xYYHr4BEM//T7GBmx59AmOv/2PNObnueOBx5gZGWZ6+BydqwbZtucP6GovoQLNhYOQs0X6t2xm40NP4bxi5Mh+Tr79Kt4tzGuuGnHTIze9k3OuNZEbjNnAhvVLWbW6l47OLlasWMLR909yeOgkUUPx+N67GFzbT70m/O3fvEpvX55td26ge0mJudkafX3dRI2Yn/7kAPNzFb7wpT0US5aoYfjut39KT087n3nqXv7Pd1+mWkno6y+y6+7NvPXG+/jY8tu/u5uOziKjlyv86MW3qEd1Pjx6no5SkcHBfg4eOMHM3Dwd7SX27L2bfFHR19fDuTOTvP7qQeKGsGqgm71P3EWp1E0Yag7/4iyFvGVgYDmP7NkKotj/5ilOfHSK7Ts20N/fzduvfUjf0i5233cHP/rRG8xNazZuXsGZ0+dYPbicrs4S9apn166NJK7CAw/tAMnx4g9fZuxyBediHnlsE5u3raJU6KJWn8PqkGIhx/jYJAffOQWi2bXzTi6cu4Lyliee3MnKVb3Uq55nv/Mqq9d28thjn+KuHQMs7e/m8j3zvHvgfc6eucS+px/h7TePcuXyJFu2rqGtvcCRoRPs3H0HxWKBlauWo7TwxqtDjI/Ns+fT9+J8lZWrljF6qcLPfvom8/N1Ojs72bNnDy+88ALj4+OpAhtHe88guz77eVRHgZlLI3zw87+jXK5j5uepl2sQN7BJncAU0SFsvP9xVm27D2vg6MsvcPncSZav30TY3s7ZX7xNsauHLQ8+zvsv/QOuYRi47xE27txLvqiRyGOMJgyL7Hjyt+levR0f1zjyw+8xMXzmxpLHLSACd9z3ECvuvp/KlTGiWowVQyIJIsKBAwf44he/yLp16zh8+DDOOay1bNu2jdWrV/Pzn/+carV61ZiXb9jGm9/9a2rjIyQCRityuQSRBonKkwQlkmCazr6V3P/M1zj8879j+vJ57tv3Ve769D7OHzvIkoFN5N4fQrync/lafOLxKDY99CSHfvosOqmz4eGnEK1oW7aKFXc9zP4f/YD62feJxCNEkOXs1xin1vT09NDV1dUy5mq1yujoKFF0404eWEvvkiX8/jN7ef2V93nu717hL/7DnzA3GzG4ZiltxRJ//53X2L5jPf/6K09w/MOzPPGZe3n91SHu2r6RY8c+ZNPmdWzZPMCO3Ws4NHSWo0cu8ujjW/mjL+/lpZ8dJJeDu3Zs5PgHI3zqwc3Mzc0SBpZ9zzzK8WPnOPXRBR779N3seXwXr75+FO8aqUPSFqUEpQOKhRJ337uJo++d5YXn/5EnnnyQLVs2MDc7zX2f2sJP/uEd4kbIw3u2YCysXNnLpz61jZ+88A5hLuCRx+9mvjzH6Y9Gueuu9Tzw0AbWrlvNkfdOUy1DqZSnt6+T114+RF/fUjo6SkxP1ulf1sV99z/G95/7GUGo2ff0o7zwvXe4c8cqcrkc3/qfP2HN4CAPPrYBVAQ6prOrjdVrlrBuw3KGho5jbcDTf3A3SSw897evsfuezXz+C4/x/HMv8b//13P88Z/8Pm+8cYD33zuD9yFLerpYu34px97PMzMVsqS3RG9vF6c/KrF+3Vp27F7Hf//Pz9O7tMSnn3iYn//sXe7cuZbTH13hh99/lT177+OuHZt5990P6O3tBWB0dBTnHNpYCp0ruXvfVxk5fZwzb79IXK3gtSHEY2ggyhGrIi7Mkagym3ftpXtwI68/+19p61nK/b/zFfxPvkPX8gFsWydh8Qi5ji5612yl2HOAZevvpG1pHy9/6z/Rs3qALQ/8NjoMWbv7YcIVG3nt239NbfIi1gZ4GtxYC7k5nCR8MPQysxNXWH//Xkx7B6Y2inJCFEUkScLIyAibN29maGgISHPpfD5PW1sbxlxrM/rMB28RVeZoKIvS4NEk3qLxaKmmuVBsWXnHTgKJGT11nEa5xsUjb9O5fBBjcxhJC2EKgxVBG0v/+s34pE597By1WLA4nBcqsxMksxPsfvRJ7v/Cv2XZhs0YVVxQOb8KpRSdnZ2sXbu29Tc4OHjLkNuJ4/SpcV5//RBjE1N8/7k3qNfrrN+wjK7uAp97+kHWb1jJytXdWAv1ap3TH40wemWc82cmsFaxdu1yenv7GHr3NJXqPK+8dJTung4Uhpd+fIT1G5bRv7Sd9etX8P7QMKVikU1bVrD9rrU8te8BlvZ30dVdSAsryiI4hAhB4xGMhonxMY4dOUNUDahXauTzmtVrlhI7GB9rEPsIScsQLFvWw4pV3Xzmqft4dM9OVqzsJhdayuUK77z1Hjt23kGhkOPs6WEQYd36ZczPzSNeMTtdZdPmNbR3BBjtOXTwCMPnppmbblDIG9raQjZsHOTAOx8QRRpHgjYBXgziFaW2Alu3r8dJzMEDHxGGljs2raC/v5PP7XuQgcF++ld0ok2YBohGSGKNT/KIchjjSasTBqMVGoPWCm0UlVqV1159n7HxCT784Bz73z5K1KgzPzvNe0MnqJc15bkK+bxGKcEYQ71exxiT5YtQKBYQHTN94X3i2OG0ARE8Fi8WS4yihnJQ8AVWbryLqTPHqJdrTJw7Q31mnK6BLWilsZLmzEZUGo4XSqzYso3h9w5AYx4ShTIxceyYuHCS9kBz3+f+kPue+TL5fDta5T6xIUNaADaxTstvirSeoBVepzUOEaFSqdDT09N6nyQJhw8f5rnnnqPRaFybM8cJBKHBx6AI0V4wQUBgc5icIVSW2KQ5sAmKaGPQNq10+sSTRBFogyoUyUV1TK4tHVxcw3qN2BLF9jymvQPtNXGlzEcHXmbpipV0Dt7Jlkd/h9lL36RWmWxVaJsQETo7O1m3bl1rZy6Xy+zfv//mAkIYH5+gWm2QJMI/vvIWPd2dOBHOD1+iPKuoN2Z5880P6ews4ImJYyGKY+r1BJQjSSAIwBqFViat7eGo1mJm5yZ5xG5n09ZVTE7MMDo+Tb/pwHk4f2GCcrlGtTrP1EQV7x2BCbGBJggDjJFUobUliYVqtUEcJYgotNIksWTVVEdnezvFQgGlPI24zuzcPGfPzlJvzHHw0Emmp8tYDe3tbURxQq0WUyjkKBUcmzatZtPmVQysXkmpVCRKqrx36CQKQ6MR06hHeAfeS6tI5X2dwFp6urvSGq9OTwHOnR/h1PFJfvf3H2FgbSfjozW8wIXhy5TnhFp9lvnZmEYUpTm7V4RBgcCGeOMQPEryhKGmkNUBFGke7ZKYyYl5oshTqZWZPvgBK5f3L5CNa8lmYdFHRFp/ygmu0cCJJcxrKpEl9AKiCGwOZQ1BaFtFSh87jM2BUgS5HKgQiWMSHHmdh7Y8uWI7KghIAOVdahv5dgq9XWDzmESYnbrMoRe/Q3ffCgbv2cu2JwsM/eA7iCTk8/lWelipVG5auNVKYQKLtQEmNORUjpoJIMkq7kCSJK17lVKtHFlrfUOqaXd+5nOcChT9E2NcHDmHxDE9A+voHtxMqW+AvrXbiHzMyIlDDG7Zwd2ffYby5GVWbb2X42/9DKnOU4srbNl8D4XuEsvu2MTU6fe4cukSg1vu4c6H99G3fg3tvT2cUh6by5MrLSEmpBHH5KMqOuehyg35hnOOoaEhDh482JpAczFvujuLzkoICu81SjvqDcfR94bZcMdqDl05RqNRZ2Z2njC0OK9AJ3gvoBPAMDw8hjaw7/ce4sLZSbbdtYqhd08yNTWLYJicrLB5ywA/+dG7OK+olGPeO3yBto48Y2OT1Oo1ZmbnUWLoX9bJ8pVL6OxqY826ZUQfjeLFoY3HGIexgtIJiYu5MjzJtu1r2PvkNgYHBlnSu4RfvPMh46MVKmUhdvNUqzXK5Xmq1ZjNWwe49/6t/P2z+xkYXMqje3by7v6P6FvaybN/81NOHh8jCDV//o3Ps2ZtPyiPUgkmELRJ0EYoz5c5ffIC+37vcS6NXGbXrp2Uy2XEC0qlxjM5dYUDB95lz96H+IcfvMnhofMsX7GM0dETmSznqNeEINTU4zIbtyzFecfFkUniKOLChUvcuXMda9fX2LV7K8eOns2q3AaR9HjKe4XW4FyCNh5tHCbwKBXjxbV25c7OzpYuINCoTKPDHJv3PsXkobeYnp5i9PIFcmGO3rWbaVu2FhdF9AxsZPTccc4eeo0tDz+F8w3auvtwvsH5I2/Su3otA1t2snXjfQzu2k1xSQe2VuPiqQ/Zsfcpxs9fZP09O6gnIFoodizB5DqJMdQqFbyvo3NgxNDX18ef/dmf8eMf/5h3332XSqXyy2s8QUjXqkGWrt1GqW8VS9dtJaZOeXwUcQlJktDf38/w8HDLeZVKJR588EGefPJJ/uqv/orh4eFWeyZn9H9UGpwKqc5M4WtlOpcPEFcqTF44CYlQnZ2kNjfD6NkPsfk2BM3FDw5x+eR7NBpVpi5fIZezTEyN8+FbrzN+6Qz1iXFmJ0fTEOjiCKf2v8b05CWSJKKjbwVBGJI05jl/6BeUZy7j3c0rB03jbXqlmxuy0Gg0mJiYYmJ8HucFSCupI8PjVKpzBLkigiFOaoxenmNsfIazZy8zM1vj8uVJJibKnD07wuGhM4S5AMExPDzGgXc+Sivv3jE7U2V8dIYPPjhPlDQQrzh16mKqgKaIF8fcfJXyfIPevjaiunDxwhSJi5mYmKNWrTE7W+XSpWmqtQbz5QaXL08xPVVhbGwSrUMuXrzCgQPHGBudZWqqwsjlKxRLOaCA8xHjY/Pk8oZzZy5z5fIUE5OzlMtVZmbmGRub4/y5car1Os4rZmbKTE1XGRkZ48roPFNTc9TrCeMTcwwPT3Dp0jhR5GnUYw4cOMKF85OMDI8zO1Nh9MoskxNzjI1OUa95rlye5viH56lHFYKgiIiiHtWYmanhnObKyESqWAHMzVUozzc4feosNshTLld56aW3uDQyw/j4DHPz84yNTjI7VweVKqsTz+xshZGRKSrVBuVKzJUrk8zOVonjhNWrV5PP55mcnCSKIiKpM3H+AvgGgiZ2UJscxWhDR98KZq9cZO7KRVycMH/lIuXpccozk9hCB/VKheP7f0Z9fpbZyXGiShkbaM6e+JBzx4aYuHCGudHLNBrzJHGVi4eGGDlxjOmJi4TFIm3dS1OHOD7CibdexcUVjDK0t7ezZs0aLl26xLlz51qkjuuhgI6lK9ECkxdPQuKoVeaozU5hjGHVqlVs376d/fv3Mzs7i1KKXC5Hd3c3AwMDHD58mNnZWb74xS+ybNky1JpVqyQJDEosJI302DzIY5MGRntiCfEiGGJQNiVhKI+RID2n9Iq6Tch5i9KWGhF5sSQ+wRuNJkCLA03ajni85Imso+BiPApR6iob7JdAa00cx63Q5VZIs1KHEKC1JnExWgVorXAuAlJiiFJpGJmK1KF1gEga8hptEJ8gkua8xiqS2KONxUkdjQWfA1PN2kjJEkkSp+2rjEyhBPGgCRAPyniEBBGdnmMLpIfhBpRDXIQxAd677BhC4SUBlZ4tey+AQakEEYNR6dGE1gbvMxaQMXhJUCpMxyEKLy6Vm+iMGJMgaLQG7xOUSHqfS7J8lJTEIQFkRJl0B/Vok54ZO9e4RpapsxXwIUq5NMqRtOiHqBbJKC0EpOfkSvuUcEOQ7coeRdr+DbIRTxiGdHR08I1vfINnn32Wo0ePpkxFUYjyJNagElDEKB8gxhBIHdBEKkQnMcpIumbGp3PzulXPEOWxYnEaEhwFCainbAqUKqKJM2qPYJ0mNjm8apBzjkRpjFYs7VvKV7/6Vc6dO8fLL7/M7OwsURT9Ur1VAs7mMEmEVQkJYUrNkoQwF7Jv3z6Gh4c5cuQIjUYDEWFgYIAvfelLvPjii5w/f575+Xmef/55du7ciVq3eqU0SI05rxJinQreuSbjq1nECbE0UgKASKoOOkDh0dpT80KJEOfriLYoqyGOia3Gxg20ChCjEe/S4oTSWOdTxgvglb9hsk2ISOuM7dYMMLhK52zmVSkbSiROmVCZ+YoPgCRVHGK81xgjIBYvERBgbJQqmFIoyaXsKjEpKSRjM3mXy4w3SgkPuJQx5jWoBFBIxspSLWaYSr8TQ8pKi9HKolWQ5kg6Iwd4UEqn7DvlW8U0JUGmUlHmFLKCScaUUlyVlTEGLx6tMraaT9AqzEJ9AQlADF4aKGWy7wtAI2V2iSZlThlEHCgPkq79QlkKCUpnZBvxaK1xWbSldZDqUzb3lB3oU/aZkDlah1Im4xQkeG/QSuMlyhhstJz5wMAA/f397N+/HyUKlEN7oa4CcigUEd6EiMR4R4uNpggAjSYB32SngSNHoGO8j6nrgJIHT4zXAQowElE3ljBOUIC3FrzHYdLz/cRhggDvHF5dzY8/lo6pNEoLLokX2JpBKU2pWOSJJ57gjTfeYGpqKnPa+uqaLkg3W8a8anBArBO8FrwyqcPSgpf04NzhMF5QSnCiQCuUT/A6xEiCiEWUSx1vk6ooBq89mkwRRGNEE2XUUZQjcIpEp2RQA9zclK8m/s2K3s0FlNEMvUKbVN1TplfG3FU6VdYs91Ya8Aa0z3YPDz4VcCo8hUiAUlHGDMsUQyzgAItScabwaTepITYNuLnzJxk91Gbvr87lmtF7QRvV6ivtI6PZAs57jFWZkXvEq5bMU7lk1yrJ+rekVEjXMojmrpjuqM2qsEbpODVKiTA6j8vOOlMH6LIdNd1dVXZ2kSqfbima9zFaFRHVSPuRIBtLNg9JaxhphCEoZbM203ZEmuO6XjZXOQhKKcIwZZFFUYRBUpKmKALvSWzKjDPicVpQkjoAj8O4VLcdBqMSfHZcoMWDssTE5MTiVKo7SgxowYvGqAjlDShDlDlpg8N4Q6wUBo9G4a7Tz1vpq8qYqw4wonHao116vdKafD7fOqJqzr3luBfQW5vGbJUIXgPoVGQq5fDqTCEzwuNVjq2AKJsKAJ0WVVCpLWSCF+XRQsqXbS678mhRmZBSypzKSlUfu9cuEMitw+zsGi1c1YWrrUsWbrbak0yiTeNJB5XtHE3lcleNNdv1rxqEy/qRVvfXvG/ygFMe5XVjuXHWSqvr7k/XJJCEqgFNDjxYiahjCWmAMtRVs4LrEBWCJDQjh1RmJuuvRfImLRD6bLf0iE9dqlKWxMWp98eD+CbbfoGMM0fJtcqlMgps60wNn80nk5/ymWyb42jKUV8z7xtlc63cGo1G632zBZTgtc6WU9LPZcEOicr0PI2FRK46SZQmPcwyuCzfU5keKwGlMh1Q4HHopmPH4FXaHtk5xPX6eSt9baqEziSqfUa5BcT7awghC+Vys+jULnzSRF1z0YLXqvUPC19d7zuvf53K5dr7Ft77y9r558XCUd2sl1v1fv13Hzfzm/X9ScZxsxEIdUICp9G+gVWOurZYFA3TQSGuE5JgjMMpwRJyM7q/Umle2jzm0/raiKcJYzTeZ3n2P3l1mjHW9XL5VeT/8Vj4RFPTJ99Uj68b18fp3/V6fL07vLHFXwe/vhX805jhi/iNIC3ohCTG4pVCBzkCBTkMHoNTFh8nKO1JlNy0mLjwvHOhAafh9NVzyyRJsNZ+gvrEIv5/wifnni3iNwavLKJjwOHRGFXk/me+xj1PfwEf5NA+RiuH1kIQ3/wxPK11q5AI2ZNixlytIWSGbq29hsC/iNsDizvzbQCjHKIdyoHWEASOuclh4sSjA0USQ6hzeBehzM1D44UVUBHBWptynLOwu1nIWsTticWVuw2gvEJciDE5Sv2D3P9v/pyN938ORY7ACUXxiItRWrXOm28GrXUrpO7u7ubLX/4y27dvbz3s36JJ/jP9Essi/t9h0ZhvAygxaOURF1ItT/PBi88yNztBoa0DpYSaSn+cIB8ElEolisViK3xuHuU0P2/mws3jvkKhcM2D/4u4fbEYZt8G8EGC+BjlPa7qqGjN/OQVvNRwJsGYhMCGbN+xne4l/WgRhoaGmJycJJ/Ps3PnTtrb21FK8c477zAzM4OIMDMzwze/+c1rduLFXfn2xaIx3waIE41RNiXhOEEkRItFSwmkhER1EhNx+uwZCqOTSBxTLpdbZINTp061fkuqXC63fuzBWttiE0VRdMN5/mI1+/bCojHfBgiyZ3TRivbOHnpWrqazu43QajqXrcD7OkmtztzUPBPjc5iMytqsUo+NjbWM9OqzwAprLV/72tc4ceIEr7zySouMsWjEtycWc+bbANrXEHG4IMB0LWX1nXdTdkBbjpXbt+OL7TRQeCcEctWQm1gYQqccaNX6xYpKpUJvby+5XK51zWL+fHticWe+DeBUCKQPptQunOXQ6CWsTR+OiZIIFdUINdkz2Sl1sWm0zb+Fu61SikKhwFe+8hWcc3zve9+jXC4DXHNMtWjQtxcWjfk2gMoeRvAevICrJTRa/EUho5C3nkoCrtmZF5Lym6jVanz729/GOcfMzMwtr13E7QFbKpV+02NYxG8ITSL/og7cvmimTADq3Llzi9WORSziNkZ/fz/5fB4li6XLRSziXwQWq9mLWMS/EPxfOxs8Ei67joAAAAAASUVORK5CYII=;" vertex="1" parent="1">
          <mxGeometry x="299.5" y="1174" width="243" height="32" as="geometry" />
        </mxCell>
        <mxCell id="_wjk-Xj_CM7tvn-0b_mo-47" style="edgeStyle=orthogonalEdgeStyle;rounded=0;orthogonalLoop=1;jettySize=auto;html=1;exitX=0;exitY=0.5;exitDx=0;exitDy=0;entryX=0;entryY=0.25;entryDx=0;entryDy=0;" edge="1" parent="1" source="_wjk-Xj_CM7tvn-0b_mo-42" target="_wjk-Xj_CM7tvn-0b_mo-7">
          <mxGeometry relative="1" as="geometry">
            <mxPoint x="80" y="560" as="targetPoint" />
            <Array as="points">
              <mxPoint x="20" y="1320" />
              <mxPoint x="20" y="580" />
              <mxPoint x="354" y="580" />
            </Array>
          </mxGeometry>
        </mxCell>
        <mxCell id="_wjk-Xj_CM7tvn-0b_mo-42" value="" style="rounded=0;whiteSpace=wrap;html=1;" vertex="1" parent="1">
          <mxGeometry x="361" y="1290" width="120" height="60" as="geometry" />
        </mxCell>
        <mxCell id="_wjk-Xj_CM7tvn-0b_mo-43" value="" style="shape=image;verticalLabelPosition=bottom;labelBackgroundColor=default;verticalAlign=top;aspect=fixed;imageAspect=0;image=data:image/png,iVBORw0KGgoAAAANSUhEUgAAACAAAAAYCAYAAACbU/80AAAChElEQVRIie2WT2sTQRjGf+/MbrKl2RqCzUFQWpHaFtpSaKEEzMGDt1TI0e/hB7BnP4J49s+1LUhvBTEniwUPSo8VqqSHRrKb3ezMeKgG23rIxqoXn9s8vLvz45md911xzjn+obyfF9ZaemkPsRZnPRCHIqOvNNo6hiX1PI9isZgfIE1SWq9bpCbDyemGngWHgAwfVLVaZXl5OT9AL+nxaGODqBejxGCsQ4mPOHBihwao1WqjAfT7fb60P9OLY7TSABhnyTKDEhkaoNPpDF3rXXAEPL9I+cYsymYcH37AOAvDB5BLFwDECE57zN65R3LS5vjTR7TRWDF/HkBEUJ5mrDjOu1cvsS4F5ePbiER7aK3xfR84PS5jTqHO+3mkzgAozZXqNRbXH3D/4WNuL9UBRU8XQYRSqUSz2WR1dZVCoYCIICKEYUiz2WRxcXEAMlICzho6x0e8335GqRCQYfCUYJWmFJYol8tUKhW63S5hGOL7PiIy8CuVCmEYEgTBiADOkaURKSFxHOPRh6TPmLbU63VWVlaYmJhgenqa+fl5tre3mZmZYWFhgTAMmZqaYmlpiXa7PRoAgBCg7QkifTJXwBYDOnGfzc1Ndnd3WV9f5/DwkFarRRRF7O/vs7OzQ6PR4ODggL29PWq12mgASmsmp24ye7fB5PU5Jm/1GK9e5e3zJ8RJhjGGOI6Joogsy4DT9v3Dj+N44I+cQKd9xJsXT/GDMRyQdDsYUSBCmqZsbW0NNpbvzSlJkoGfd7adHUbGkHS/0u12f1mcpulQvuTomuq8cRnTOc87ziQQBAFra2skSfJbAHNzc0PXyvkfkstIIM8RXLyGOR6+DF34Bv62/gP8B/gGy1wVU+53RyQAAAAASUVORK5CYII=;" vertex="1" parent="1">
          <mxGeometry x="407.5" y="1308" width="32" height="24" as="geometry" />
        </mxCell>
        <mxCell id="_wjk-Xj_CM7tvn-0b_mo-46" value="False" style="text;html=1;strokeColor=none;fillColor=none;align=center;verticalAlign=middle;whiteSpace=wrap;rounded=0;" vertex="1" parent="1">
          <mxGeometry x="580" y="1022.5" width="60" height="30" as="geometry" />
        </mxCell>
      </root>
    </mxGraphModel>
  </diagram>
</mxfile>
